<?xml version="1.0"?>
<svg xmlns="http://www.w3.org/2000/svg" viewBox="0 0 26 26" enable-background="new 0 0 26 26">
    <path d="M 7 1 C 4.2545455 1 2 3.2545455 2 6 C 2 8.4022727 3.7292259 10.43718 6 10.90625 L 6 16 C 6 17.1 6.9 18 8 18 L 18.28125 18 L 20 18 L 23 18 L 23 23.5 A 1.50015 1.50015 0 1 0 26 23.5 L 26 17 C 26 16.516667 25.828046 15.953046 25.4375 15.5625 C 25.046954 15.171954 24.483333 15 24 15 L 20 15 L 13.40625 14.1875 C 12.50625 14.0875 11.49375 14 10.59375 14 L 8 14 L 8 10.90625 C 10.270774 10.43718 12 8.4022727 12 6 C 12 3.2545455 9.7454545 1 7 1 z M 7 3 C 8.6545455 3 10 4.3454545 10 6 C 10 7.6545455 8.6545455 9 7 9 C 5.3454545 9 4 7.6545455 4 6 C 4 4.3454545 5.3454545 3 7 3 z M 7 5 C 6.4477153 5 6 5.4477153 6 6 C 6 6.5522847 6.4477153 7 7 7 C 7.5522847 7 8 6.5522847 8 6 C 8 5.4477153 7.5522847 5 7 5 z M 2.5 13 C 1.1192881 13 0 14.119288 0 15.5 C 0 16.880712 1.1192881 18 2.5 18 C 3.8807119 18 5 16.880712 5 15.5 C 5 14.119288 3.8807119 13 2.5 13 z M 0 19 L 0 21 L 21 21 L 21 19 L 0 19 z"/>
</svg>
