<?xml version="1.0"?>
<svg xmlns="http://www.w3.org/2000/svg" width="26" height="26" viewBox="0 0 26 26">
    <path  d="M 19.5 0.125 C 18.189981 0.125 17.125 1.1899806 17.125 2.5 C 17.125 3.8100194 18.189981 4.875 19.5 4.875 C 20.810019 4.875 21.875 3.8100194 21.875 2.5 C 21.875 1.1899806 20.810019 0.125 19.5 0.125 z M 11 3.78125 C 10.8385 3.81225 10.7015 3.87475 10.5625 3.96875 L 7.03125 6.6875 C 6.45325 7.1875 5.90025 7.812 6.28125 8.375 C 6.52525 8.738 7.3745 8.54625 7.8125 8.28125 L 11.5 6.3125 L 13.90625 6.84375 L 10.625 11.6875 C 9.874 12.9885 9.648 14.00525 11 15.15625 L 12.53125 16.09375 L 15.65625 18.25 L 13.6875 23.03125 C 12.9535 24.79225 13.15325 25.56825 13.65625 25.78125 C 14.15925 25.99425 14.83 25.88475 15.875 23.96875 L 18.84375 18.3125 C 19.13375 17.6595 18.93175 16.904 18.34375 16.5 L 14.59375 13.9375 L 17.25 9.65625 L 18.3125 12.03125 C 18.4885 12.42625 18.8835 12.79175 19.3125 12.84375 C 19.3125 12.84375 22.33825 12.795 23.15625 12.75 C 24.01525 12.703 24.978 12.5265 25 11.9375 C 25.031 11.0935 24.2115 11.056 23.4375 11 L 20.4375 10.71875 L 18.6875 6.8125 C 18.666192 6.7648846 18.620152 6.7310034 18.59375 6.6875 C 18.585543 6.6531336 18.574873 6.6238781 18.5625 6.59375 C 18.549219 6.5752586 18.545435 6.5488426 18.53125 6.53125 C 18.504797 6.4859219 18.478 6.464875 18.4375 6.4375 L 18.40625 6.40625 C 18.28925 6.2973125 18.14725 6.2125 18 6.15625 L 16.21875 4.90625 C 16.08825 4.814 15.94725 4.75475 15.78125 4.71875 L 11.5 3.78125 C 11.335 3.74725 11.1615 3.75025 11 3.78125 z M 9.125 15.09375 L 7.71875 17.03125 C 7.71875 17.03125 4.03475 17.298 2.71875 17.375 C 1.71075 17.435 1.125 17.81575 1.125 18.46875 C 1.125 19.12175 1.6105 19.47775 3.0625 19.59375 C 4.2875 19.69175 8.5 19.9375 8.5 19.9375 C 8.989 19.9375 9.50675 19.6835 9.84375 19.1875 L 11.21875 17.1875 C 11.21775 17.1865 9.264 15.86675 9.125 15.09375 z"/>
</svg>
